<svg width="300" height="300" viewBox="0 0 300 300" fill="none" xmlns="http://www.w3.org/2000/svg">
<rect width="300" height="300" rx="150" fill="#414141"/>
<path d="M136.1 199.65C133 199.65 130.35 198.35 128.15 195.75C126.05 193.05 124 188.65 122 182.55C121 179.55 120.15 176.65 119.45 173.85C118.85 170.95 118.4 168.15 118.1 165.45C116.8 167.45 115.6 168.8 114.5 169.5C113.5 170.1 112 170.4 110 170.4C105.1 170.4 99.9 170.35 94.4 170.25C88.9 170.05 84 169.9 79.7 169.8C79.5 171.6 79.3 173.45 79.1 175.35C79 177.15 78.95 178.95 78.95 180.75C78.95 182.35 79 183.95 79.1 185.55C79.3 187.15 79.45 188.7 79.55 190.2C79.85 193 78.75 195.25 76.25 196.95C73.75 198.65 70.65 199.5 66.95 199.5C63.75 199.5 62.15 198.1 62.15 195.3C62.15 193.6 62.6 191.05 63.5 187.65C64 185.35 64.4 183.4 64.7 181.8C65 180.1 65.15 178.75 65.15 177.75C65.15 174.95 64.3 173.05 62.6 172.05C61.2 171.25 60.5 170.2 60.5 168.9C60.5 167.7 60.75 166.25 61.25 164.55C61.85 162.85 62.6 161.3 63.5 159.9C64.4 158.4 65.25 157.35 66.05 156.75C66.75 156.35 67.6 156 68.6 155.7C69.6 155.4 70.85 155.2 72.35 155.1C76.25 143.9 80.6 134.25 85.4 126.15C90.3 117.95 95.5 111.65 101 107.25C106.5 102.75 112.1 100.5 117.8 100.5C121.3 100.5 123.85 101.7 125.45 104.1C127.05 106.4 127.85 110.3 127.85 115.8V122.55C127.85 132.65 128.6 141.95 130.1 150.45C131.6 158.95 133.45 165.85 135.65 171.15C137.85 176.75 140.9 181.35 144.8 184.95C146 185.95 146.8 186.85 147.2 187.65C147.6 188.35 147.8 189.1 147.8 189.9C147.8 191.4 147.2 192.9 146 194.4C144.9 195.9 143.45 197.15 141.65 198.15C139.85 199.15 138 199.65 136.1 199.65ZM84.2 154.2C89.1 154 93.4 153.85 97.1 153.75C100.8 153.55 103.9 153.45 106.4 153.45H116.9C116.7 150.65 116.5 147.7 116.3 144.6C116.2 141.5 116.15 138.25 116.15 134.85V126.15C116.15 123.25 115.8 121.35 115.1 120.45C114.5 119.45 113.3 118.95 111.5 118.95C106.6 118.95 101.7 122.15 96.8 128.55C91.9 134.95 87.7 143.5 84.2 154.2ZM179.395 199.95C175.695 199.95 172.295 199.6 169.195 198.9C166.095 198.2 163.545 196.9 161.545 195C160.045 193.6 159.045 192.05 158.545 190.35C158.045 188.55 157.795 186.6 157.795 184.5C157.795 181.1 158.095 177.7 158.695 174.3C159.595 168.4 160.395 162.05 161.095 155.25C161.795 148.45 162.145 142.15 162.145 136.35C162.145 134.55 162.045 132.5 161.845 130.2C161.745 127.9 161.545 125.75 161.245 123.75C160.545 124.05 159.845 124.35 159.145 124.65C158.545 124.85 157.995 124.95 157.495 124.95C156.595 124.95 155.995 124.5 155.695 123.6C155.395 122.7 155.245 121.7 155.245 120.6C155.245 117.7 155.895 115.25 157.195 113.25C158.595 111.15 160.845 109.3 163.945 107.7C167.245 105.9 171.545 104.35 176.845 103.05C182.245 101.65 187.695 100.95 193.195 100.95C205.695 100.95 215.495 104.65 222.595 112.05C229.795 119.35 233.395 129.75 233.395 143.25C233.395 150.95 232.195 158.25 229.795 165.15C227.495 171.95 224.045 178 219.445 183.3C214.845 188.5 209.195 192.6 202.495 195.6C195.795 198.5 188.095 199.95 179.395 199.95ZM184.195 183.15C188.695 183.15 193.195 182.45 197.695 181.05C202.195 179.65 206.245 177.55 209.845 174.75C213.545 171.95 216.495 168.4 218.695 164.1C220.895 159.7 221.995 154.45 221.995 148.35C221.995 141.45 220.645 135.75 217.945 131.25C215.245 126.75 211.645 123.4 207.145 121.2C202.645 119 197.645 117.9 192.145 117.9C189.145 117.9 186.145 118.15 183.145 118.65C180.245 119.15 177.945 119.65 176.245 120.15C176.145 124.75 175.845 129.25 175.345 133.65C174.945 137.95 174.445 142.15 173.845 146.25C173.245 150.55 172.745 154.75 172.345 158.85C172.045 162.95 171.895 167 171.895 171C171.895 176 172.895 179.3 174.895 180.9C176.995 182.4 180.095 183.15 184.195 183.15Z" fill="white"/>
</svg>
